<svg width="32" height="32" viewBox="0 0 47.581429 77.315781" xmlns="http://www.w3.org/2000/svg">
  <g transform="translate(351.30686,-158.54937)">
    <g transform="matrix(2.4307449,0,0,2.4307449,-363.74873,-127.07147)" style="fill:#b16286">
      <path d="m 12.3073,127.88684 v 11.22412 4.57854 a 5.6360459,5.6360459 0 0 0 5.251876,5.62136 V 138.08674 133.5082 A 5.6360459,5.6360459 0 0 0 12.3073,127.88684 Z" />
      <path d="m 5.1185506,117.50342 v 15.94993 a 5.4826112,5.4826112 0 0 0 5.2518754,5.4622 v -10.92491 -10.48722 z" />
      <path d="m 19.441507,128.02077 v 13.09636 a 6.7146358,6.7146358 0 0 0 5.251876,-6.2513 v -0.79324 a 6.7146358,6.7146358 0 0 0 -5.251876,-6.05182 z" />
    </g>
  </g>
</svg>
